PathFileType	4	(X/Y/Z)	E:\Studenten\Marcel_BSc\Simon_27_12_2024\27-12-2024\static_00.trc
DataRate	CameraRate	NumFrames	NumMarkers	Units	OrigDataRate	OrigDataStartFrame	OrigNumFrames
200.0	200.0	4	63	mm	200.0	252	175	
Frame#	Time	FHD			LBHD			RBHD			RBAR			LBAR			RASI			RSACR			LSACR			LASI			USACR			C7			CLAV			T10			RSHO			LSHO			LTHI1			LTHI3			LTHI2			LTHI4			LLFC			LMFC			LTIB1			LTIB2			LTIB3			LTIB4			LMMAL			LLMAL			LHEE			LMT1			LMT5			LMT3			RTHI1			RTHI3			RTHI2			RTHI4			RLFC			RMFC			RTIB1			RTIB3			RTIB2			RTIB4			RLMAL			RMMAL			RHEE			RMT5			RMT1			RMT3			LMEP			LLEP			LDUPA			LMUPA			LUUPA			LUL			LRAD			LRFIN			RUL			RRAD			RUFIN			RMEP			RDUPA			RUUPA			RLEP			RMUPA			
		X1	Y1	Z1	X2	Y2	Z2	X3	Y3	Z3	X4	Y4	Z4	X5	Y5	Z5	X6	Y6	Z6	X7	Y7	Z7	X8	Y8	Z8	X9	Y9	Z9	X10	Y10	Z10	X11	Y11	Z11	X12	Y12	Z12	X13	Y13	Z13	X14	Y14	Z14	X15	Y15	Z15	X16	Y16	Z16	X17	Y17	Z17	X18	Y18	Z18	X19	Y19	Z19	X20	Y20	Z20	X21	Y21	Z21	X22	Y22	Z22	X23	Y23	Z23	X24	Y24	Z24	X25	Y25	Z25	X26	Y26	Z26	X27	Y27	Z27	X28	Y28	Z28	X29	Y29	Z29	X30	Y30	Z30	X31	Y31	Z31	X32	Y32	Z32	X33	Y33	Z33	X34	Y34	Z34	X35	Y35	Z35	X36	Y36	Z36	X37	Y37	Z37	X38	Y38	Z38	X39	Y39	Z39	X40	Y40	Z40	X41	Y41	Z41	X42	Y42	Z42	X43	Y43	Z43	X44	Y44	Z44	X45	Y45	Z45	X46	Y46	Z46	X47	Y47	Z47	X48	Y48	Z48	X49	Y49	Z49	X50	Y50	Z50	X51	Y51	Z51	X52	Y52	Z52	X53	Y53	Z53	X54	Y54	Z54	X55	Y55	Z55	X56	Y56	Z56	X57	Y57	Z57	X58	Y58	Z58	X59	Y59	Z59	X60	Y60	Z60	X61	Y61	Z61	X62	Y62	Z62	X63	Y63	Z63	
252	1.255	115.55993	1728.9484	-930.08173	285.17584	1696.3279	-852.40619	240.6438	1725.6008	-1005.2606	2013.7432	28.072435	-2007.8921	1903.4048	23.688417	212.59221	157.12466	969.86249	-1062.3256	346.6821	977.06567	-958.29175	344.15317	973.06964	-915.94501	152.03989	974.21558	-813.17035	337.44073	985.78345	-933.17365	319.22766	1481.0947	-924.63947	163.09265	1432.2943	-925.11078	331.93362	1169.6334	-934.78058	298.71747	1467.6976	-1086.291	285.43198	1461.5391	-764.06262	221.07852	813.44043	-732.43561	188.44188	790.69891	-732.46844	235.84325	774.47717	-724.01831	190.49419	726.30927	-724.15643	260.61053	499.32941	-743.14191	235.55406	469.68753	-847.66272	319.49103	416.47656	-731.0448	295.76001	378.05923	-714.61279	342.84003	366.56516	-727.9118	308.93097	313.79358	-709.86688	251.64479	96.970894	-822.49811	282.07687	76.664696	-736.66223	331.21121	35.492683	-786.22668	111.28339	41.05225	-775.05121	155.1736	29.488268	-703.80365	128.80421	33.644123	-724.55469	208.07951	817.36926	-1143.2622	161.54124	781.72015	-1130.33	208.74551	784.83649	-1148.7371	187.85425	721.77936	-1145.994	255.46178	500.68759	-1124.4441	241.92836	482.84799	-1003.0211	306.19873	433.04062	-1136.7644	339.40912	382.95786	-1142.5736	289.19366	385.6265	-1154.3091	312.01892	323.8374	-1155.486	287.93195	82.87896	-1132.2527	248.71754	100.31135	-1049.729	328.37274	33.22961	-1073.7379	172.48415	28.893641	-1181.858	119.21484	45.839478	-1119.1764	130.73564	35.030487	-1159.8811	214.3425	1296.4746	-502.34937	272.26834	1395.5942	-489.58377	304.96588	1389.1042	-564.04266	323.62863	1381.7056	-622.94623	297.50412	1422.4359	-635.53729	226.4153	1365.4163	-232.68604	167.8132	1343.005	-247.46367	157.5148	1353.2953	-153.455	246.27649	1396.0739	-1608.1024	196.09996	1400.8009	-1592.8636	180.5939	1400.7869	-1697.8837	231.81778	1299.6824	-1357.989	285.45078	1431.979	-1284.6327	314.35852	1425.4803	-1210.3331	283.41544	1401.9996	-1363.6764	320.50543	1400.3207	-1267.2667
253	1.26	115.65884	1728.9581	-930.08746	285.24716	1696.3107	-852.40808	240.74509	1725.585	-1005.257	2013.7469	28.079887	-2007.884	1903.3334	23.752678	212.69183	157.07585	969.85797	-1062.3217	346.69217	977.05487	-958.31763	343.9158	973.10962	-915.89319	151.99744	974.19873	-813.16736	337.39752	985.78461	-933.17755	319.26663	1481.0627	-924.60846	163.09627	1432.2994	-925.1134	331.89038	1169.6033	-934.77881	298.73697	1467.6763	-1086.2946	285.44312	1461.5131	-764.0603	221.0506	813.43433	-732.44025	188.44208	790.67865	-732.47559	235.80717	774.47198	-724.01111	190.46999	726.30847	-724.16754	260.59183	499.3284	-743.14453	235.52179	469.68692	-847.67322	319.47403	416.48157	-731.04535	295.75082	378.06229	-714.61041	342.83911	366.62762	-727.8371	308.87027	313.82819	-709.82587	251.72206	96.934525	-822.37109	282.07587	76.662491	-736.67957	331.20819	35.490318	-786.22754	111.28717	41.047302	-775.04742	155.17619	29.488184	-703.80737	128.79076	33.650116	-724.54797	208.03894	817.36017	-1143.2639	161.49684	781.72028	-1130.3235	208.83385	784.60394	-1148.4313	187.81699	721.75397	-1145.9664	255.45039	500.6904	-1124.4449	241.91461	482.84659	-1003.0222	306.18423	433.04388	-1136.7588	339.39835	382.96353	-1142.5692	289.17133	385.67352	-1154.6564	312.03186	323.82999	-1155.4832	287.9292	82.885826	-1132.2538	248.72697	100.29745	-1049.7103	328.37878	33.224609	-1073.7377	172.48062	28.885517	-1181.8588	119.20961	45.831837	-1119.182	130.73132	35.03553	-1159.8761	214.31636	1296.4463	-502.35678	272.26273	1395.5464	-489.58636	304.94641	1389.092	-564.04016	323.61758	1381.674	-622.9433	297.50003	1422.4172	-635.53485	226.40173	1365.3643	-232.68858	167.80591	1342.9496	-247.47334	157.54951	1353.147	-153.51859	246.22769	1396.0168	-1608.1193	196.06274	1400.7555	-1592.8528	180.55486	1400.7252	-1697.8743	231.78891	1299.6348	-1357.9816	285.45422	1431.9395	-1284.6296	314.35721	1425.4309	-1210.325	283.39822	1401.9635	-1363.6696	320.48859	1400.257	-1267.2622
254	1.265	115.73495	1728.9675	-930.08472	285.31885	1696.2947	-852.40613	240.84377	1725.5693	-1005.2421	2013.7537	28.051292	-2007.8593	1903.4724	23.579763	212.44217	157.02838	969.854	-1062.3204	346.64893	977.05133	-958.33051	343.87665	973.0979	-915.90387	151.97168	974.1944	-813.17126	337.34909	985.78357	-933.18488	319.31116	1481.042	-924.61469	163.10382	1432.3026	-925.1095	331.86612	1169.587	-934.7738	298.74557	1467.6549	-1086.2931	285.44861	1461.4884	-764.05237	221.0177	813.43445	-732.43994	188.36877	790.69476	-732.47437	235.78778	774.46741	-724.00458	190.44112	726.30554	-724.17743	260.58475	499.33032	-743.14832	235.50784	469.68277	-847.67395	319.4617	416.48468	-731.04974	295.73615	378.05893	-714.62128	342.62448	366.64114	-727.97614	308.93253	313.78046	-709.88879	251.63811	96.991966	-822.52264	282.08142	76.659111	-736.672	331.21158	35.489056	-786.23798	111.28439	41.043613	-775.05084	155.17709	29.483723	-703.80927	128.79564	33.63792	-724.55438	207.99927	817.36285	-1143.2687	161.47597	781.70093	-1130.3301	208.79097	784.58771	-1148.4402	187.78323	721.75671	-1145.9906	255.43063	500.68628	-1124.4369	241.89865	482.84726	-1003.021	306.17569	433.04965	-1136.7675	339.39041	382.97452	-1142.5822	289.18301	385.63489	-1154.3881	312.00479	323.8367	-1155.4958	287.92844	82.880814	-1132.2491	248.71939	100.29924	-1049.7109	328.37515	33.225388	-1073.7321	172.47426	28.887621	-1181.8639	119.21537	45.831127	-1119.1743	130.74976	35.004982	-1159.8665	214.29909	1296.4032	-502.42365	272.26743	1395.5074	-489.57587	304.92618	1389.0303	-564.03827	323.60358	1381.6398	-622.94806	297.48724	1422.3951	-635.53278	226.39995	1365.2965	-232.68552	167.79279	1342.8995	-247.46991	157.55064	1353.0653	-153.17523	246.18913	1395.9492	-1608.1145	196.01933	1400.7031	-1592.8416	180.51344	1400.6675	-1697.8534	231.76659	1299.5825	-1357.9641	285.44586	1431.8898	-1284.6188	314.36386	1425.4634	-1210.505	283.41211	1401.9475	-1363.6808	320.47638	1400.2058	-1267.2495
255	1.27	115.81815	1728.9746	-930.09613	285.38437	1696.2922	-852.40619	240.91855	1725.5568	-1005.245	2013.7444	28.072144	-2007.8916	1903.4661	23.620724	212.48505	156.98723	969.8515	-1062.3188	346.55762	977.06183	-958.32727	343.83273	973.08624	-915.91022	151.92676	974.19855	-813.15546	337.13358	985.66699	-933.13452	319.28476	1481.0051	-924.61102	163.10452	1432.3081	-925.11157	331.82874	1169.5685	-934.75958	298.7561	1467.6302	-1086.2896	285.45721	1461.4702	-764.04645	220.98857	813.42877	-732.44055	188.35739	790.69403	-732.49585	235.73088	774.45947	-723.98633	190.42201	726.31329	-724.17737	260.56818	499.32877	-743.15454	235.4808	469.68625	-847.69592	319.45001	416.48505	-731.04657	295.73581	378.05447	-714.61505	342.75702	366.59195	-727.93829	308.90494	313.56622	-710.50342	251.67143	97.08017	-822.69861	282.0679	76.671257	-736.69037	331.20258	35.490395	-786.22699	111.27942	41.044903	-775.0506	155.17104	29.480537	-703.81549	128.80263	33.638542	-724.55768	207.96913	817.3526	-1143.2659	161.43587	781.6947	-1130.3354	208.74866	784.58368	-1148.4346	187.74966	721.76025	-1145.9851	255.42635	500.68808	-1124.4454	241.8896	482.85043	-1003.0191	306.16724	433.05115	-1136.7623	339.41119	382.88251	-1142.4948	289.16922	385.63382	-1154.3749	312.00833	323.84125	-1155.4705	287.931	82.881218	-1132.2443	248.707	100.31002	-1049.7118	328.37424	33.22797	-1073.7354	172.4781	28.885878	-1181.8578	119.21284	45.835079	-1119.1808	130.74129	35.020962	-1159.8765	214.23531	1296.3896	-502.49176	272.25909	1395.4565	-489.56064	304.91141	1388.9774	-564.03931	323.59329	1381.6008	-622.94287	297.47073	1422.3715	-635.53638	226.38895	1365.2317	-232.689	167.7894	1342.8352	-247.4819	157.61574	1352.9111	-153.2747	246.15067	1395.8951	-1608.0929	195.97717	1400.6543	-1592.8286	180.4568	1400.5922	-1697.8578	231.74042	1299.5293	-1357.9611	285.42154	1431.8306	-1284.6139	314.33594	1425.3445	-1210.3203	283.17279	1401.7859	-1363.4501	320.46536	1400.1658	-1267.2472
